# Created by Kenney (www.kenney.nl)

mtllib boss_switch_3x3-off-02.mtl

g mergedBlocks

v 0.5 -1 0.5
v 0.5 -1 -0.5
v -0.5 -1 0.5
v -0.5 -1 -0.5
v 0.5 -0.1 -0.5
v 0.5 -0.1 0.5
v -0.5 -0.1 -0.5
v -0.5 -0.1 0.5
v 0.5 0 -0.5
v 0.5 0 0.5
v -0.5 0 -0.5
v -0.5 0 0.5
v 0.1575 0.028 0.2625
v 0.1575 0 0.2625
v 0.1575 0.028 0.3675
v 0.1575 0 0.3675
v 0.105 0.028 0.42
v 0.105 0 0.42
v -0.1575 0 0.105
v -0.1575 0.028 0.105
v -0.105 0 0.1575
v -0.105 0.028 0.1575
v 0.2625 0 0.05250001
v 0.21 0 7.58007E-16
v 0.2625 0.028 0.05250001
v 0.21 0.028 7.58007E-16
v 0.2625 0 -0.1575
v 0.2625 0.028 -0.1575
v 0.21 0 -0.105
v 0.21 0.028 -0.105
v 0.42 0.028 -8.944483E-14
v 0.42 0 -8.944483E-14
v 0.3675 0.028 0.05250001
v 0.3675 0 0.05250001
v 0 0 0.42
v 0 0.028 0.42
v -6.291459E-14 0 -0.42
v 0.05250001 0 -0.3675
v -6.291459E-14 0.028 -0.42
v 0.05250001 0.028 -0.3675
v 0 0 0.21
v 0 0.028 0.21
v -0.05250001 0 0.2625
v -0.05250001 0.028 0.2625
v -0.105 0 -0.1575
v -0.105 0.028 -0.1575
v -0.1575 0 -0.105
v -0.1575 0.028 -0.105
v 0.42 0.028 -0.105
v 0.3675 0.028 -0.1575
v 0.105 0.028 -0.1575
v 0.105 0 -0.1575
v 0.1575 0.028 -0.105
v 0.1575 0 -0.105
v -0.105 0 -0.21
v -0.1575 0 -0.2625
v -0.105 0.028 -0.21
v -0.1575 0.028 -0.2625
v 0.3675 0 -0.1575
v 0.42 0 -0.105
v -0.105 0 -0.42
v -0.105 0.028 -0.42
v -0.1575 0 -0.3675
v -0.1575 0.028 -0.3675
v 0.05250001 0.028 -0.2625
v 0.05250001 0 -0.2625
v 0 0.028 -0.21
v 0 0 -0.21
v -0.05250001 0 0.3675
v -0.05250001 0.028 0.3675
v 0.1575 0.028 0.105
v 0.1575 0 0.105
v 0.105 0.028 0.1575
v 0.105 0 0.1575
v -0.42 0 1.781317E-14
v -0.42 0.028 1.781317E-14
v -0.42 0 0.105
v -0.42 0.028 0.105
v 0.105 0 0.21
v 0.105 0.028 0.21
v -0.21 0.028 -7.58007E-16
v -0.21 0 -7.58007E-16
v -0.21 0.028 0.105
v -0.21 0 0.105
v -0.3675 0 -0.05250001
v -0.3675 0.028 -0.05250001
v -0.3675 0 0.1575
v -0.3675 0.028 0.1575
v -0.2625 0 -0.05250001
v -0.2625 0.028 -0.05250001
v -0.2625 0.028 0.1575
v -0.2625 0 0.1575
v 0.3675 0.014 0.105
v 0.3675 0 0.105
v 0.3675 0.014 0.2625
v 0.3675 0 0.2625
v 0.2625 0 -0.21
v 0.105 0 -0.21
v 0.2625 0.014 -0.21
v 0.105 0.014 -0.21
v 0.21 0 0.105
v 0.21 0.014 0.105
v 0.21 0 0.2625
v 0.21 0.014 0.2625
v 0.105 0 -0.3675
v 0.2625 0 -0.3675
v 0.105 0.014 -0.3675
v 0.2625 0.014 -0.3675
v -0.3675 0 -0.2625
v -0.3675 0.014 -0.2625
v -0.3675 0 -0.105
v -0.3675 0.014 -0.105
v -0.21 0 -0.105
v -0.21 0.014 -0.105
v -0.21 0 -0.2625
v -0.21 0.014 -0.2625
v -0.2625 0 0.21
v -0.105 0 0.21
v -0.2625 0.014 0.21
v -0.105 0.014 0.21
v -0.105 0.014 0.3675
v -0.105 0 0.3675
v -0.2625 0.014 0.3675
v -0.2625 0 0.3675

vn 0 -1 0
vn 1 0 0
vn -1 0 0
vn 0 0 -1
vn 0 0 1
vn 0 1 0
vn 0.7071068 0 0.7071068
vn -0.7071068 0 0.7071068
vn -0.7071068 0 -0.7071068
vn 0.7071068 0 -0.7071068

vt 0.0625 0.0625
vt 0.1875 0.0625
vt 0 0
vt 0.4375 0.0625

usemtl boss_switch_3x3-off-02

f 3/1/1 2/1/1 1/1/1
f 2/1/1 3/1/1 4/1/1
f 6/1/2 2/1/2 5/1/2
f 2/1/2 6/1/2 1/1/2
f 3/1/3 7/1/3 4/1/3
f 7/1/3 3/1/3 8/1/3
f 7/1/4 2/1/4 4/1/4
f 2/1/4 7/1/4 5/1/4
f 6/1/5 3/1/5 1/1/5
f 3/1/5 6/1/5 8/1/5

usemtl boss_switch_3x3-off-02

f 11/2/6 10/2/6 9/2/6
f 10/2/6 11/2/6 12/2/6
f 8/2/3 11/2/3 7/2/3
f 11/2/3 8/2/3 12/2/3
f 10/2/5 8/2/5 6/2/5
f 8/2/5 10/2/5 12/2/5
f 10/2/2 5/2/2 9/2/2
f 5/2/2 10/2/2 6/2/2
f 11/2/4 5/2/4 7/2/4
f 5/2/4 11/2/4 9/2/4

usemtl boss_switch_3x3-off-02

f 15/4/2 14/4/2 13/4/2
f 14/4/2 15/4/2 16/4/2
f 17/4/7 16/4/7 15/4/7
f 16/4/7 17/4/7 18/4/7
f 21/4/8 20/4/8 19/4/8
f 20/4/8 21/4/8 22/4/8
f 25/4/8 24/4/8 23/4/8
f 24/4/8 25/4/8 26/4/8
f 29/4/9 28/4/9 27/4/9
f 28/4/9 29/4/9 30/4/9
f 33/4/7 32/4/7 31/4/7
f 32/4/7 33/4/7 34/4/7
f 17/4/5 35/4/5 18/4/5
f 35/4/5 17/4/5 36/4/5
f 39/4/10 38/4/10 37/4/10
f 38/4/10 39/4/10 40/4/10
f 43/4/9 42/4/9 41/4/9
f 42/4/9 43/4/9 44/4/9
f 47/4/9 46/4/9 45/4/9
f 46/4/9 47/4/9 48/4/9
f 49/4/6 33/4/6 31/4/6
f 33/4/6 49/4/6 50/4/6
f 33/4/6 50/4/6 25/4/6
f 25/4/6 50/4/6 28/4/6
f 25/4/6 28/4/6 26/4/6
f 26/4/6 28/4/6 30/4/6
f 24/4/3 30/4/3 29/4/3
f 30/4/3 24/4/3 26/4/3
f 53/4/10 52/4/10 51/4/10
f 52/4/10 53/4/10 54/4/10
f 19/4/3 48/4/3 47/4/3
f 48/4/3 19/4/3 20/4/3
f 57/4/8 56/4/8 55/4/8
f 56/4/8 57/4/8 58/4/8
f 50/4/10 60/4/10 59/4/10
f 60/4/10 50/4/10 49/4/10
f 33/4/5 23/4/5 34/4/5
f 23/4/5 33/4/5 25/4/5
f 63/4/9 62/4/9 61/4/9
f 62/4/9 63/4/9 64/4/9
f 67/4/7 66/4/7 65/4/7
f 66/4/7 67/4/7 68/4/7
f 69/4/3 44/4/3 43/4/3
f 44/4/3 69/4/3 70/4/3
f 73/4/7 72/4/7 71/4/7
f 72/4/7 73/4/7 74/4/7
f 71/4/2 54/4/2 53/4/2
f 54/4/2 71/4/2 72/4/2
f 31/4/2 60/4/2 49/4/2
f 60/4/2 31/4/2 32/4/2
f 77/4/3 76/4/3 75/4/3
f 76/4/3 77/4/3 78/4/3
f 42/4/4 79/4/4 41/4/4
f 79/4/4 42/4/4 80/4/4
f 46/4/4 52/4/4 45/4/4
f 52/4/4 46/4/4 51/4/4
f 62/4/4 37/4/4 61/4/4
f 37/4/4 62/4/4 39/4/4
f 83/4/2 82/4/2 81/4/2
f 82/4/2 83/4/2 84/4/2
f 28/4/4 59/4/4 27/4/4
f 59/4/4 28/4/4 50/4/4
f 75/4/9 86/4/9 85/4/9
f 86/4/9 75/4/9 76/4/9
f 88/4/8 77/4/8 87/4/8
f 77/4/8 88/4/8 78/4/8
f 13/4/10 79/4/10 80/4/10
f 79/4/10 13/4/10 14/4/10
f 90/4/10 82/4/10 89/4/10
f 82/4/10 90/4/10 81/4/10
f 91/4/7 84/4/7 83/4/7
f 84/4/7 91/4/7 92/4/7
f 51/4/6 71/4/6 53/4/6
f 71/4/6 51/4/6 73/4/6
f 73/4/6 51/4/6 46/4/6
f 73/4/6 46/4/6 22/4/6
f 22/4/6 46/4/6 48/4/6
f 22/4/6 48/4/6 20/4/6
f 80/4/6 15/4/6 13/4/6
f 15/4/6 80/4/6 17/4/6
f 17/4/6 80/4/6 42/4/6
f 17/4/6 42/4/6 36/4/6
f 36/4/6 42/4/6 44/4/6
f 36/4/6 44/4/6 70/4/6
f 35/4/8 70/4/8 69/4/8
f 70/4/8 35/4/8 36/4/8
f 73/4/5 21/4/5 74/4/5
f 21/4/5 73/4/5 22/4/5
f 40/4/6 67/4/6 65/4/6
f 67/4/6 40/4/6 39/4/6
f 67/4/6 39/4/6 57/4/6
f 57/4/6 39/4/6 62/4/6
f 57/4/6 62/4/6 58/4/6
f 58/4/6 62/4/6 64/4/6
f 65/4/2 38/4/2 40/4/2
f 38/4/2 65/4/2 66/4/2
f 67/4/5 55/4/5 68/4/5
f 55/4/5 67/4/5 57/4/5
f 56/4/3 64/4/3 63/4/3
f 64/4/3 56/4/3 58/4/3
f 95/4/2 94/4/2 93/4/2
f 94/4/2 95/4/2 96/4/2
f 99/4/5 98/4/5 97/4/5
f 98/4/5 99/4/5 100/4/5
f 86/4/4 89/4/4 85/4/4
f 89/4/4 86/4/4 90/4/4
f 103/4/3 102/4/3 101/4/3
f 102/4/3 103/4/3 104/4/3
f 102/4/4 94/4/4 101/4/4
f 94/4/4 102/4/4 93/4/4
f 102/4/6 95/4/6 93/4/6
f 95/4/6 102/4/6 104/4/6
f 107/4/4 106/4/4 105/4/4
f 106/4/4 107/4/4 108/4/4
f 111/4/3 110/4/3 109/4/3
f 110/4/3 111/4/3 112/4/3
f 114/4/5 111/4/5 113/4/5
f 111/4/5 114/4/5 112/4/5
f 99/4/2 106/4/2 108/4/2
f 106/4/2 99/4/2 97/4/2
f 110/4/4 115/4/4 109/4/4
f 115/4/4 110/4/4 116/4/4
f 95/4/5 103/4/5 96/4/5
f 103/4/5 95/4/5 104/4/5
f 107/4/6 99/4/6 108/4/6
f 99/4/6 107/4/6 100/4/6
f 98/4/3 107/4/3 105/4/3
f 107/4/3 98/4/3 100/4/3
f 114/4/2 115/4/2 116/4/2
f 115/4/2 114/4/2 113/4/2
f 119/4/4 118/4/4 117/4/4
f 118/4/4 119/4/4 120/4/4
f 91/4/5 87/4/5 92/4/5
f 87/4/5 91/4/5 88/4/5
f 110/4/6 114/4/6 116/4/6
f 114/4/6 110/4/6 112/4/6
f 81/4/6 91/4/6 83/4/6
f 91/4/6 81/4/6 90/4/6
f 91/4/6 90/4/6 88/4/6
f 88/4/6 90/4/6 86/4/6
f 88/4/6 86/4/6 78/4/6
f 78/4/6 86/4/6 76/4/6
f 121/4/2 118/4/2 120/4/2
f 118/4/2 121/4/2 122/4/2
f 119/4/6 121/4/6 120/4/6
f 121/4/6 119/4/6 123/4/6
f 121/4/5 124/4/5 122/4/5
f 124/4/5 121/4/5 123/4/5
f 124/4/3 119/4/3 117/4/3
f 119/4/3 124/4/3 123/4/3

