# Created by Kenney (www.kenney.nl)

mtllib final-platform-02.mtl

g mergedBlocks

v 3.5 -1 -8.5
v 3.5 -1 -13.5
v -2.5 -1 -8.5
v -2.5 -1 -13.5
v 3.5 -0.1 -13.5
v 3.5 -0.1 -8.5
v -2.5 -0.1 -13.5
v -2.5 -0.1 -8.5
v 1.5 -1 0.5
v 1.5 -1 -8.5
v -0.5 -1 0.5
v -0.5 -1 -8.5
v 1.5 -0.1 -8.5
v 1.5 -0.1 0.5
v -0.5 -0.1 -8.5
v -0.5 -0.1 0.5
v 3.5 0 -13.5
v 3.5 0 -8.5
v -2.5 0 -13.5
v -2.5 0 -8.5
v 1.5 0 -8.5
v 1.5 0 0.5
v -0.5 0 -8.5
v -0.5 0 0.5

vn 0 -1 0
vn 1 0 0
vn -1 0 0
vn 0 0 -1
vn 0 0 1
vn 0 1 0

vt 0.6875 0.0625
vt 0.4375 0.0625
vt 0 0
vt 0.6875 0.3125

usemtl final-platform-02

f 3/1/1 2/1/1 1/1/1
f 2/1/1 3/1/1 4/1/1
f 6/1/2 2/1/2 5/1/2
f 2/1/2 6/1/2 1/1/2
f 3/1/3 7/1/3 4/1/3
f 7/1/3 3/1/3 8/1/3
f 7/1/4 2/1/4 4/1/4
f 2/1/4 7/1/4 5/1/4
f 6/1/5 3/1/5 1/1/5
f 3/1/5 6/1/5 8/1/5
f 11/1/1 10/1/1 9/1/1
f 10/1/1 11/1/1 12/1/1
f 14/1/2 10/1/2 13/1/2
f 10/1/2 14/1/2 9/1/2
f 11/1/3 15/1/3 12/1/3
f 15/1/3 11/1/3 16/1/3
f 15/1/4 10/1/4 12/1/4
f 10/1/4 15/1/4 13/1/4
f 14/1/5 11/1/5 9/1/5
f 11/1/5 14/1/5 16/1/5

usemtl final-platform-02

f 19/2/6 18/2/6 17/2/6
f 18/2/6 19/2/6 20/2/6
f 8/2/3 19/2/3 7/2/3
f 19/2/3 8/2/3 20/2/3
f 18/2/5 8/2/5 6/2/5
f 8/2/5 18/2/5 20/2/5
f 18/2/2 5/2/2 17/2/2
f 5/2/2 18/2/2 6/2/2
f 19/2/4 5/2/4 7/2/4
f 5/2/4 19/2/4 17/2/4

usemtl final-platform-02

f 23/4/6 22/4/6 21/4/6
f 22/4/6 23/4/6 24/4/6
f 16/4/3 23/4/3 15/4/3
f 23/4/3 16/4/3 24/4/3
f 22/4/5 16/4/5 14/4/5
f 16/4/5 22/4/5 24/4/5
f 22/4/2 13/4/2 21/4/2
f 13/4/2 22/4/2 14/4/2
f 23/4/4 13/4/4 15/4/4
f 13/4/4 23/4/4 21/4/4

