# Created by Kenney (www.kenney.nl)

mtllib tile-01.mtl

g mergedBlocks

v -0.4 -0.1 -0.4
v 0.4 -0.1 -0.4
v -0.4 0 -0.4
v 0.4 0 -0.4
v 0.4 -0.1 0.4
v -0.4 -0.1 0.4
v 0.4 0 0.4
v -0.4 0 0.4
v 0.4 -1.1 -0.35
v 0.35 -1.1 -0.35
v 0.4 -0.1 -0.35
v 0.35 -0.1 -0.35
v 0.35 -1.1 -0.4
v 0.35 -0.1 -0.4
v 0.4 -1.1 -0.4
v 0.4 -0.1 -0.4
v 0.3499999 -1.1 0.3999999
v 0.3499999 -1.1 0.3499999
v 0.3499999 -0.1 0.3999999
v 0.3499999 -0.1 0.3499999
v 0.3999999 -1.1 0.3499999
v 0.3999999 -0.1 0.3499999
v 0.4 -1.1 0.3999999
v 0.4 -0.1 0.3999999
v -0.4 -1.1 0.3500001
v -0.35 -1.1 0.3500001
v -0.4 -0.1 0.3500001
v -0.35 -0.1 0.3500001
v -0.35 -1.1 0.4
v -0.35 -0.1 0.4
v -0.4 -1.1 0.4000001
v -0.4 -0.1 0.4000001
v -0.3500002 -1.1 -0.3999999
v -0.3500002 -1.1 -0.3499999
v -0.3500002 -0.1 -0.3999999
v -0.3500002 -0.1 -0.3499999
v -0.4000002 -1.1 -0.3499999
v -0.4000002 -0.1 -0.3499999
v -0.4000002 -1.1 -0.3999999
v -0.4000002 -0.1 -0.3999999

vn 0 0 -1
vn 0 0 1
vn 0 1 0
vn 1 0 0
vn -1 0 0
vn 0 -1 0
vn -1 0 1.788139E-07
vn -1.788139E-07 0 -1
vn 1 0 -1.788139E-07
vn 1.788139E-07 0 1
vn 1 0 -1.192093E-07
vn 1.192093E-07 0 1
vn -1 0 1.192093E-07
vn -1.192093E-07 0 -1

vt 0.0625 0.0625
vt 0.1875 0.0625
vt 0.3125 0.0625

usemtl tile-01

f 3/1/1 2/1/1 1/1/1
f 2/1/1 3/1/1 4/1/1
f 7/1/2 6/1/2 5/1/2
f 6/1/2 7/1/2 8/1/2
f 3/1/3 7/1/3 4/1/3
f 7/1/3 3/1/3 8/1/3
f 7/1/4 2/1/4 4/1/4
f 2/1/4 7/1/4 5/1/4
f 6/1/5 3/1/5 1/1/5
f 3/1/5 6/1/5 8/1/5

usemtl tile-01

f 6/2/6 2/2/6 5/2/6
f 2/2/6 6/2/6 1/2/6

usemtl tile-01

f 11/3/2 10/3/2 9/3/2
f 10/3/2 11/3/2 12/3/2
f 10/3/5 14/3/5 13/3/5
f 14/3/5 10/3/5 12/3/5
f 14/3/1 15/3/1 13/3/1
f 15/3/1 14/3/1 16/3/1
f 11/3/4 15/3/4 16/3/4
f 15/3/4 11/3/4 9/3/4
f 10/3/6 15/3/6 9/3/6
f 15/3/6 10/3/6 13/3/6
f 14/3/3 11/3/3 16/3/3
f 11/3/3 14/3/3 12/3/3
f 19/3/7 18/3/7 17/3/7
f 18/3/7 19/3/7 20/3/7
f 18/3/8 22/3/8 21/3/8
f 22/3/8 18/3/8 20/3/8
f 22/3/9 23/3/9 21/3/9
f 23/3/9 22/3/9 24/3/9
f 19/3/10 23/3/10 24/3/10
f 23/3/10 19/3/10 17/3/10
f 18/3/6 23/3/6 17/3/6
f 23/3/6 18/3/6 21/3/6
f 22/3/3 19/3/3 24/3/3
f 19/3/3 22/3/3 20/3/3
f 27/3/8 26/3/8 25/3/8
f 26/3/8 27/3/8 28/3/8
f 26/3/9 30/3/9 29/3/9
f 30/3/9 26/3/9 28/3/9
f 30/3/10 31/3/10 29/3/10
f 31/3/10 30/3/10 32/3/10
f 27/3/7 31/3/7 32/3/7
f 31/3/7 27/3/7 25/3/7
f 26/3/6 31/3/6 25/3/6
f 31/3/6 26/3/6 29/3/6
f 30/3/3 27/3/3 32/3/3
f 27/3/3 30/3/3 28/3/3
f 35/3/11 34/3/11 33/3/11
f 34/3/11 35/3/11 36/3/11
f 34/3/12 38/3/12 37/3/12
f 38/3/12 34/3/12 36/3/12
f 38/3/13 39/3/13 37/3/13
f 39/3/13 38/3/13 40/3/13
f 35/3/14 39/3/14 40/3/14
f 39/3/14 35/3/14 33/3/14
f 34/3/6 39/3/6 33/3/6
f 39/3/6 34/3/6 37/3/6
f 38/3/3 35/3/3 40/3/3
f 35/3/3 38/3/3 36/3/3

