# Created by Kenney (www.kenney.nl)

mtllib red_bird-01.mtl

g mergedBlocks

v 0.3362493 0.3638915 0.4964739
v 0 0.3638915 0.7053924
v 0.3362493 0.6729085 0.4964739
v 0 0.6729085 0.7053924
v -0.3362493 0.6729085 0.4964739
v 0 0.9229085 0.4329389
v -0.2078135 0.9229085 0.3038202
v 0 0.9229085 -0.4487389
v 0.2078135 0.9229085 -0.3196202
v 0 1.0184 -0.0079
v -0.4755282 0.6729085 -0.0079
v -0.2938926 0.9229085 -0.0079
v 0.2938926 0.9229085 -0.0079
v -0.2078135 0.9229085 -0.3196202
v 0.2078135 0.9229085 0.3038202
v 0 0.6729085 -0.7211924
v 0.3362493 0.6729085 -0.5122739
v -0.3362493 0.6729085 -0.5122739
v -0.4755282 0.3638915 -0.0079
v -0.3362493 0.3638915 0.4964739
v 0 0.1138915 0.4329389
v 0 0.01840001 -0.0079
v -0.2078135 0.1138915 0.3038202
v 0 0.1138915 -0.4487389
v 0.2078135 0.1138915 -0.3196202
v 0 0.3638915 -0.7211924
v 0.3362493 0.3638915 -0.5122739
v 0.2078135 0.1138915 0.3038202
v 0.2938926 0.1138915 -0.0079
v 0.4755282 0.6729085 -0.0079
v 0.4755282 0.3638915 -0.0079
v -0.3362493 0.3638915 -0.5122739
v -0.2078135 0.1138915 -0.3196202
v -0.2938926 0.1138915 -0.0079
v 0.25 0.762 0.3412
v 0.2414815 0.7394621 0.2570875
v 0.2414815 0.7845379 0.4253125
v 0.2165064 0.8055399 0.5036929
v 0.2165064 0.7184601 0.1787071
v 0.1767767 0.8235747 0.5709996
v 0.1767767 0.7004253 0.1114004
v 0.125 0.8374133 0.6226459
v 0.125 0.6865867 0.05975407
v 0.06470476 0.6778874 0.02728787
v 0.06470476 0.8461126 0.6551121
v 0 0.8490798 0.6661857
v 0 0.6749203 0.01621425
v -0.06470476 0.8461126 0.6551121
v -0.06470476 0.6778874 0.02728787
v -0.125 0.6865867 0.05975407
v -0.125 0.8374133 0.6226459
v -0.1767767 0.7004253 0.1114004
v -0.1767767 0.8235747 0.5709996
v -0.2165064 0.8055399 0.5036929
v -0.2165064 0.7184601 0.1787071
v -0.2414815 0.7845379 0.4253125
v -0.2414815 0.7394621 0.2570875
v -0.25 0.762 0.3412
v 0.0025 1.738744 0.0794819
v 0.002414815 1.738969 0.08032301
v 0.002414815 1.738519 0.07864079
v 0.002165063 1.738309 0.07785696
v 0.002165063 1.739179 0.08110684
v 0.001767767 1.738128 0.0771839
v 0.001767767 1.73936 0.0817799
v 0.00125 1.73799 0.07666743
v 0.00125 1.739498 0.08229637
v 0.0006470476 1.737903 0.07634279
v 0.0006470476 1.739585 0.08262101
v 0 1.737873 0.07623205
v 0 1.739615 0.08273175
v -0.0006470476 1.737903 0.07634279
v -0.0006470476 1.739585 0.08262101
v -0.00125 1.73799 0.07666743
v -0.00125 1.739498 0.08229637
v -0.001767767 1.738128 0.0771839
v -0.001767767 1.73936 0.0817799
v -0.002165063 1.738309 0.07785696
v -0.002165063 1.739179 0.08110684
v -0.002414815 1.738519 0.07864079
v -0.002414815 1.738969 0.08032301
v -0.0025 1.738744 0.0794819
v 0.35 0.782419 -1.569767
v -0.35 0.782419 -1.569767
v 0.35 0.8574135 -1.549672
v -0.35 0.8574135 -1.549672
v 0.28 0.8761621 -1.544649
v -0.28 0.8761621 -1.544649
v -0.14 0.4471493 -0.09354007
v 0.14 0.4471493 -0.09354007
v -0.14 0.4658979 -0.08851635
v 0.14 0.4658979 -0.08851635
v -0.07 0.4846465 -0.0834927
v 0.07 0.4846465 -0.0834927
v -0.21 0.6886759 -1.594885
v -0.35 0.7261732 -1.584838
v 0.21 0.6886759 -1.594885
v 0.35 0.7261732 -1.584838
v 0.07 0.409652 -0.1035874
v -0.07 0.409652 -0.1035874
v 0.14 0.4284006 -0.09856373
v -0.14 0.4284006 -0.09856373
v 0.2 0.7592039 0.5300732
v -0.2 0.7592039 0.5300732
v 0.2 0.8631269 0.5900732
v -0.2 0.8631269 0.5900732
v 0.16 0.8891076 0.6050732
v -0.16 0.8891076 0.6050732
v -0.08000001 0.5671461 1.042727
v 0.08000001 0.5671461 1.042727
v -0.08000001 0.5931268 1.057727
v 0.08000001 0.5931268 1.057727
v -0.04 0.6191076 1.072727
v 0.04 0.6191076 1.072727
v -0.12 0.6293 0.4550731
v -0.2 0.6812615 0.4850731
v 0.12 0.6293 0.4550731
v 0.2 0.6812615 0.4850731
v 0.04 0.5151846 1.012727
v -0.04 0.5151846 1.012727
v 0.08000001 0.5411654 1.027727
v -0.08000001 0.5411654 1.027727
v 0.35 0.6668796 -0.9113084
v -0.35 0.6668796 -0.9113084
v 0.35 0.741874 -0.8912138
v -0.35 0.741874 -0.8912138
v 0.28 0.7606227 -0.8861901
v -0.28 0.7606227 -0.8861901
v -0.14 0.3316098 0.5649184
v 0.14 0.3316098 0.5649184
v -0.14 0.3503584 0.5699421
v 0.14 0.3503584 0.5699421
v -0.07 0.3691071 0.5749658
v 0.07 0.3691071 0.5749658
v -0.21 0.5731365 -0.9364269
v -0.35 0.6106337 -0.9263794
v 0.21 0.5731365 -0.9364269
v 0.35 0.6106337 -0.9263794
v 0.07 0.2941126 0.5548711
v -0.07 0.2941126 0.5548711
v 0.14 0.3128612 0.5598948
v -0.14 0.3128612 0.5598948

vn 0.7840889 -0.334608 0.5227259
vn 0 -0.4123593 0.9110212
vn 0.7840889 0.334608 0.5227259
vn 0 0.4123593 0.9110212
vn -0.7840889 0.334608 0.5227259
vn 0 0.8777037 0.4792037
vn -0.4753068 0.8207777 0.3168712
vn 0 0.8777037 -0.4792037
vn 0.4753068 0.8207777 -0.3168712
vn 0 1 0
vn -0.9573624 0.2888899 0
vn -0.6335991 0.7736616 0
vn 0.6335991 0.7736616 0
vn -0.4753068 0.8207777 -0.3168712
vn 0.4753068 0.8207777 0.3168712
vn 0 0.4123593 -0.9110212
vn 0.7840889 0.334608 -0.5227259
vn -0.7840889 0.334608 -0.5227259
vn -0.9573624 -0.2888899 0
vn -0.7840889 -0.334608 0.5227259
vn 0 -0.8777037 0.4792037
vn 0 -1 0
vn -0.4753068 -0.8207777 0.3168712
vn 0 -0.8777037 -0.4792037
vn 0.4753068 -0.8207777 -0.3168712
vn 0 -0.4123593 -0.9110212
vn 0.7840889 -0.334608 -0.5227259
vn 0.4753068 -0.8207777 0.3168712
vn 0.6335991 -0.7736616 0
vn 0.9573624 0.2888899 0
vn 0.9573624 -0.2888899 0
vn -0.7840889 -0.334608 -0.5227259
vn -0.4753068 -0.8207777 -0.3168712
vn -0.6335991 -0.7736616 0
vn 0 -0.9659258 0.2588193
vn 0 0.9659258 -0.2588193
vn -0.8894889 0.3415875 0.303525
vn -0.773374 0.4073074 0.4857914
vn -0.5876248 0.4735899 0.6560562
vn -0.3230105 0.5268903 0.786162
vn 0 0.5480262 0.8364611
vn 0.3230105 0.5268903 0.786162
vn 0.5876248 0.4735899 0.6560562
vn 0.773374 0.4073074 0.4857914
vn 0.8894889 0.3415875 0.303525
vn 0.9517989 0.2820082 0.1206244
vn 0.9713286 0.2296403 -0.061532
vn 0.9517989 0.1839139 -0.245468
vn 0.8894889 0.1440607 -0.4336542
vn 0.773374 0.1098425 -0.6243615
vn 0.5876248 0.08211222 -0.8049563
vn 0.3230105 0.06321879 -0.9442815
vn 0 0.05637344 -0.9984097
vn -0.3230105 0.06321879 -0.9442815
vn -0.5876248 0.08211222 -0.8049563
vn -0.773374 0.1098425 -0.6243615
vn -0.8894889 0.1440607 -0.4336542
vn -0.9517989 0.1839139 -0.245468
vn -0.9713286 0.2296403 -0.061532
vn -0.9517989 0.2820082 0.1206244
vn 0 0.2588191 -0.9659258
vn 0 -0.2588191 0.9659258
vn -0.2670199 0.920571 0.2850429
vn 0 0.9659258 0.2588191
vn 0.2670199 0.920571 0.2850429
vn -0.9905009 -0.03558916 0.1328205
vn 0.9905009 -0.03558916 0.1328205
vn 0 -0.9829431 -0.18391
vn -0.2659058 -0.9517618 -0.1531133
vn 0.2659058 -0.9517618 -0.1531133
vn 0 0.5000001 -0.8660253
vn 0 -0.5000001 0.8660253
vn -0.5947368 0.620661 0.5109483
vn 0 0.8660254 0.5000001
vn 0.5947368 0.620661 0.5109483
vn -0.9761871 -0.1084652 0.1878673
vn 0.9761871 -0.1084652 0.1878673
vn 0 -0.9796976 -0.2004804
vn -0.5653288 -0.8202903 -0.08675907
vn 0.5653288 -0.8202903 -0.08675907

vt 0.4375 0.0625
vt 0.0625 0.0625
vt 0.5625 0.0625

usemtl red_bird-01

f 3/1/3 2/1/2 1/1/1
f 2/1/2 3/1/3 4/1/4
f 6/1/6 5/1/5 4/1/4
f 5/1/5 6/1/6 7/1/7
f 10/1/10 9/1/9 8/1/8
f 5/1/5 12/1/12 11/1/11
f 12/1/12 5/1/5 7/1/7
f 10/1/10 13/1/13 9/1/9
f 12/1/12 10/1/10 14/1/14
f 15/1/15 4/1/4 3/1/3
f 4/1/4 15/1/15 6/1/6
f 8/1/8 17/1/17 16/1/16
f 17/1/17 8/1/8 9/1/9
f 11/1/11 14/1/14 18/1/18
f 14/1/14 11/1/11 12/1/12
f 20/1/20 11/1/11 19/1/19
f 11/1/11 20/1/20 5/1/5
f 23/1/23 22/1/22 21/1/21
f 26/1/26 25/1/25 24/1/24
f 25/1/25 26/1/26 27/1/27
f 22/1/22 29/1/29 28/1/28
f 24/1/24 25/1/25 22/1/22
f 14/1/14 10/1/10 8/1/8
f 4/1/4 20/1/20 2/1/2
f 20/1/20 4/1/4 5/1/5
f 16/1/16 27/1/27 26/1/26
f 27/1/27 16/1/16 17/1/17
f 30/1/30 27/1/27 17/1/17
f 27/1/27 30/1/30 31/1/31
f 18/1/18 26/1/26 32/1/32
f 26/1/26 18/1/18 16/1/16
f 9/1/9 30/1/30 17/1/17
f 30/1/30 9/1/9 13/1/13
f 14/1/14 16/1/16 18/1/18
f 16/1/16 14/1/14 8/1/8
f 15/1/15 30/1/30 13/1/13
f 30/1/30 15/1/15 3/1/3
f 2/1/2 23/1/23 21/1/21
f 23/1/23 2/1/2 20/1/20
f 33/1/33 19/1/19 32/1/32
f 19/1/19 33/1/33 34/1/34
f 1/1/1 29/1/29 31/1/31
f 29/1/29 1/1/1 28/1/28
f 34/1/34 22/1/22 23/1/23
f 22/1/22 28/1/28 21/1/21
f 22/1/22 25/1/25 29/1/29
f 1/1/1 21/1/21 28/1/28
f 21/1/21 1/1/1 2/1/2
f 3/1/3 31/1/31 30/1/30
f 31/1/31 3/1/3 1/1/1
f 19/1/19 18/1/18 32/1/32
f 18/1/18 19/1/19 11/1/11
f 23/1/23 19/1/19 34/1/34
f 19/1/19 23/1/23 20/1/20
f 6/1/6 15/1/15 10/1/10
f 32/1/32 24/1/24 33/1/33
f 24/1/24 32/1/32 26/1/26
f 10/1/10 15/1/15 13/1/13
f 34/1/34 33/1/33 22/1/22
f 33/1/33 24/1/24 22/1/22
f 31/1/31 25/1/25 27/1/27
f 25/1/25 31/1/31 29/1/29
f 7/1/7 6/1/6 10/1/10
f 12/1/12 7/1/7 10/1/10
f 37/1/35 36/1/35 35/1/35
f 36/1/35 37/1/35 38/1/35
f 36/1/35 38/1/35 39/1/35
f 39/1/35 38/1/35 40/1/35
f 39/1/35 40/1/35 41/1/35
f 41/1/35 40/1/35 42/1/35
f 41/1/35 42/1/35 43/1/35
f 43/1/35 42/1/35 44/1/35
f 44/1/35 42/1/35 45/1/35
f 44/1/35 45/1/35 46/1/35
f 44/1/35 46/1/35 47/1/35
f 47/1/35 46/1/35 48/1/35
f 47/1/35 48/1/35 49/1/35
f 49/1/35 48/1/35 50/1/35
f 50/1/35 48/1/35 51/1/35
f 50/1/35 51/1/35 52/1/35
f 52/1/35 51/1/35 53/1/35
f 52/1/35 53/1/35 54/1/35
f 52/1/35 54/1/35 55/1/35
f 55/1/35 54/1/35 56/1/35
f 55/1/35 56/1/35 57/1/35
f 57/1/35 56/1/35 58/1/35
f 61/1/36 60/1/36 59/1/36
f 60/1/36 61/1/36 62/1/36
f 60/1/36 62/1/36 63/1/36
f 63/1/36 62/1/36 64/1/36
f 63/1/36 64/1/36 65/1/36
f 65/1/36 64/1/36 66/1/36
f 65/1/36 66/1/36 67/1/36
f 67/1/36 66/1/36 68/1/36
f 67/1/36 68/1/36 69/1/36
f 69/1/36 68/1/36 70/1/36
f 69/1/36 70/1/36 71/1/36
f 71/1/36 70/1/36 72/1/36
f 71/1/36 72/1/36 73/1/36
f 73/1/36 72/1/36 74/1/36
f 73/1/36 74/1/36 75/1/36
f 75/1/36 74/1/36 76/1/36
f 75/1/36 76/1/36 77/1/36
f 77/1/36 76/1/36 78/1/36
f 77/1/36 78/1/36 79/1/36
f 79/1/36 78/1/36 80/1/36
f 79/1/36 80/1/36 81/1/36
f 81/1/36 80/1/36 82/1/36
f 54/1/37 77/1/38 79/1/37
f 77/1/38 54/1/37 53/1/38
f 53/1/38 75/1/39 77/1/38
f 75/1/39 53/1/38 51/1/39
f 51/1/39 73/1/40 75/1/39
f 73/1/40 51/1/39 48/1/40
f 48/1/40 71/1/41 73/1/40
f 71/1/41 48/1/40 46/1/41
f 46/1/41 69/1/42 71/1/41
f 69/1/42 46/1/41 45/1/42
f 45/1/42 67/1/43 69/1/42
f 67/1/43 45/1/42 42/1/43
f 42/1/43 65/1/44 67/1/43
f 65/1/44 42/1/43 40/1/44
f 38/1/45 65/1/44 40/1/44
f 65/1/44 38/1/45 63/1/45
f 37/1/46 63/1/45 38/1/45
f 63/1/45 37/1/46 60/1/46
f 35/1/47 60/1/46 37/1/46
f 60/1/46 35/1/47 59/1/47
f 35/1/47 61/1/48 59/1/47
f 61/1/48 35/1/47 36/1/48
f 36/1/48 62/1/49 61/1/48
f 62/1/49 36/1/48 39/1/49
f 39/1/49 64/1/50 62/1/49
f 64/1/50 39/1/49 41/1/50
f 41/1/50 66/1/51 64/1/50
f 66/1/51 41/1/50 43/1/51
f 43/1/51 68/1/52 66/1/51
f 68/1/52 43/1/51 44/1/52
f 44/1/52 70/1/53 68/1/52
f 70/1/53 44/1/52 47/1/53
f 47/1/53 72/1/54 70/1/53
f 72/1/54 47/1/53 49/1/54
f 49/1/54 74/1/55 72/1/54
f 74/1/55 49/1/54 50/1/55
f 50/1/55 76/1/56 74/1/55
f 76/1/56 50/1/55 52/1/56
f 55/1/57 76/1/56 52/1/56
f 76/1/56 55/1/57 78/1/57
f 57/1/58 78/1/57 55/1/57
f 78/1/57 57/1/58 80/1/58
f 58/1/59 80/1/58 57/1/58
f 80/1/58 58/1/59 82/1/59
f 58/1/59 81/1/60 82/1/59
f 81/1/60 58/1/59 56/1/60
f 56/1/60 79/1/37 81/1/60
f 79/1/37 56/1/60 54/1/37
f 83/1/67 85/1/67 90/1/67
f 92/1/67 90/1/67 85/1/67
f 86/1/66 84/1/66 91/1/66
f 89/1/66 91/1/66 84/1/66
f 94/1/65 92/1/65 87/1/65
f 85/1/65 87/1/65 92/1/65
f 93/1/64 94/1/64 88/1/64
f 87/1/64 88/1/64 94/1/64
f 86/1/63 91/1/63 88/1/63
f 93/1/63 88/1/63 91/1/63
f 94/1/62 93/1/62 92/1/62
f 93/1/62 91/1/62 92/1/62
f 92/1/62 91/1/62 90/1/62
f 89/1/62 90/1/62 91/1/62
f 88/1/61 87/1/61 86/1/61
f 87/1/61 85/1/61 86/1/61
f 86/1/61 85/1/61 84/1/61
f 83/1/61 84/1/61 85/1/61
f 99/1/70 97/1/70 101/1/70
f 98/1/70 101/1/70 97/1/70
f 96/1/69 95/1/69 102/1/69
f 100/1/69 102/1/69 95/1/69
f 84/1/66 96/1/66 89/1/66
f 102/1/66 89/1/66 96/1/66
f 90/1/62 89/1/62 101/1/62
f 89/1/62 102/1/62 101/1/62
f 101/1/62 102/1/62 99/1/62
f 100/1/62 99/1/62 102/1/62
f 98/1/67 83/1/67 101/1/67
f 90/1/67 101/1/67 83/1/67
f 100/1/68 95/1/68 99/1/68
f 97/1/68 99/1/68 95/1/68
f 84/1/61 83/1/61 96/1/61
f 83/1/61 98/1/61 96/1/61
f 98/1/61 97/1/61 96/1/61
f 95/1/61 96/1/61 97/1/61

usemtl red_bird-01

f 103/2/77 105/2/77 110/2/77
f 112/2/77 110/2/77 105/2/77
f 106/2/76 104/2/76 111/2/76
f 109/2/76 111/2/76 104/2/76
f 114/2/75 112/2/75 107/2/75
f 105/2/75 107/2/75 112/2/75
f 113/2/74 114/2/74 108/2/74
f 107/2/74 108/2/74 114/2/74
f 106/2/73 111/2/73 108/2/73
f 113/2/73 108/2/73 111/2/73
f 114/2/72 113/2/72 112/2/72
f 113/2/72 111/2/72 112/2/72
f 112/2/72 111/2/72 110/2/72
f 109/2/72 110/2/72 111/2/72
f 108/2/71 107/2/71 106/2/71
f 107/2/71 105/2/71 106/2/71
f 106/2/71 105/2/71 104/2/71
f 103/2/71 104/2/71 105/2/71
f 119/2/80 117/2/80 121/2/80
f 118/2/80 121/2/80 117/2/80
f 116/2/79 115/2/79 122/2/79
f 120/2/79 122/2/79 115/2/79
f 104/2/76 116/2/76 109/2/76
f 122/2/76 109/2/76 116/2/76
f 110/2/72 109/2/72 121/2/72
f 109/2/72 122/2/72 121/2/72
f 121/2/72 122/2/72 119/2/72
f 120/2/72 119/2/72 122/2/72
f 118/2/77 103/2/77 121/2/77
f 110/2/77 121/2/77 103/2/77
f 120/2/78 115/2/78 119/2/78
f 117/2/78 119/2/78 115/2/78
f 104/2/71 103/2/71 116/2/71
f 103/2/71 118/2/71 116/2/71
f 118/2/71 117/2/71 116/2/71
f 115/2/71 116/2/71 117/2/71

usemtl red_bird-01

f 123/3/67 125/3/67 130/3/67
f 132/3/67 130/3/67 125/3/67
f 126/3/66 124/3/66 131/3/66
f 129/3/66 131/3/66 124/3/66
f 134/3/65 132/3/65 127/3/65
f 125/3/65 127/3/65 132/3/65
f 133/3/64 134/3/64 128/3/64
f 127/3/64 128/3/64 134/3/64
f 126/3/63 131/3/63 128/3/63
f 133/3/63 128/3/63 131/3/63
f 134/3/62 133/3/62 132/3/62
f 133/3/62 131/3/62 132/3/62
f 132/3/62 131/3/62 130/3/62
f 129/3/62 130/3/62 131/3/62
f 128/3/61 127/3/61 126/3/61
f 127/3/61 125/3/61 126/3/61
f 126/3/61 125/3/61 124/3/61
f 123/3/61 124/3/61 125/3/61
f 139/3/70 137/3/70 141/3/70
f 138/3/70 141/3/70 137/3/70
f 136/3/69 135/3/69 142/3/69
f 140/3/69 142/3/69 135/3/69
f 124/3/66 136/3/66 129/3/66
f 142/3/66 129/3/66 136/3/66
f 130/3/62 129/3/62 141/3/62
f 129/3/62 142/3/62 141/3/62
f 141/3/62 142/3/62 139/3/62
f 140/3/62 139/3/62 142/3/62
f 138/3/67 123/3/67 141/3/67
f 130/3/67 141/3/67 123/3/67
f 140/3/68 135/3/68 139/3/68
f 137/3/68 139/3/68 135/3/68
f 124/3/61 123/3/61 136/3/61
f 123/3/61 138/3/61 136/3/61
f 138/3/61 137/3/61 136/3/61
f 135/3/61 136/3/61 137/3/61

